<svg width="160" height="48" viewBox="0 0 160 48" fill="none" xmlns="http://www.w3.org/2000/svg">
<path d="M42.5492 26.6114H51.8794C51.5832 29.786 50.5465 31.6001 48.1769 33.1118C45.5111 34.9259 42.5492 35.5306 37.3657 35.5306C32.1822 35.5306 29.2202 34.7747 26.7025 32.6583C24.1848 30.5419 23 27.5185 23 23.7391C23 19.9598 24.3329 16.9364 26.7025 15.1223C29.3683 13.0059 32.7746 12.25 37.6619 12.25C43.2896 12.25 47.2883 13.4594 49.806 15.8781C51.1389 17.2387 51.7313 18.7504 52.0275 21.3204H42.6972C41.9568 18.7504 40.4758 17.8434 37.5138 17.8434C33.6632 17.8434 31.7379 19.8086 31.7379 23.588C31.7379 27.6696 33.8113 29.9372 37.5138 29.9372C38.9948 29.9372 40.4758 29.4837 41.2163 28.879C41.6606 28.4255 41.9568 27.972 42.5492 26.6114ZM52.3237 34.9259L60.7654 12.8547H71.4286L79.8702 34.9259H70.9843L70.0957 32.9607H61.5059L60.7654 34.9259H52.3237ZM62.9869 27.2161H68.6147L65.9489 19.2039L62.9869 27.2161ZM82.6841 34.9259V12.8547H90.6815V29.3325H105.788V34.9259H82.6841ZM108.453 34.9259L116.895 12.8547H127.558L136 34.9259H127.114L126.225 32.9607H117.636L116.895 34.9259H108.453ZM119.117 27.2161H124.744L122.079 19.2039L119.117 27.2161Z" fill="black"/>
</svg>
