<svg width="160" height="48" viewBox="0 0 160 48" fill="none" xmlns="http://www.w3.org/2000/svg">
<g clip-path="url(#clip0_5431_5127)">
<path d="M91.4958 18.6813C90.2299 18.6813 88.8678 18.9436 87.8156 19.8441C86.7148 20.5935 86.1932 21.3339 85.9713 21.6252C85.7494 21.9164 85.5879 21.7888 85.6589 21.6252C85.73 21.4615 86.6454 19.1142 86.6454 19.1142C86.6454 19.1142 86.8756 18.6813 86.6454 18.4389C86.4153 18.1963 85.9713 18.4389 85.9713 18.4389C83.5708 19.4951 81.0058 20.1878 78.2929 20.4996C78.2929 20.4996 77.7777 20.5072 77.7777 21.0875C77.7777 21.6678 78.2929 21.6252 78.2929 21.6252C79.2958 21.7464 79.9372 21.9716 80.2495 22.3006C80.5454 22.6296 80.6934 23.1492 80.6934 23.8593V37.5574C80.6934 38.3713 80.6113 38.8042 80.0357 39.0987C79.7563 39.2544 79.526 39.3411 79.378 39.3929C79.2136 39.4276 78.8518 39.4969 78.2929 39.6182C78.2929 39.6182 77.6769 39.6651 77.7172 40.1965C77.7576 40.7279 78.2929 40.813 78.2929 40.813H89.0461C89.0461 40.813 89.5636 40.7492 89.5636 40.2178C89.5636 39.6864 89.0461 39.6182 89.0461 39.6182C88.4047 39.4969 88.0101 39.4276 87.8293 39.3929C87.6484 39.3411 87.4018 39.2544 87.073 39.0987C86.4153 38.8042 86.3495 38.3713 86.3495 37.5574V34.4056C87.4348 34.7518 88.5199 34.925 89.5885 34.925C91.5617 34.925 93.5676 34.1804 95.1789 32.7951C96.7902 31.427 97.8587 29.1064 97.8587 26.3528C97.8587 23.9803 97.2178 22.1101 95.9352 20.742C94.6364 19.374 93.1565 18.6813 91.4958 18.6813ZM89.1447 33.2972C88.2239 33.2972 87.5333 32.8816 87.0564 32.0676C86.5797 31.2538 86.3495 30.232 86.3495 29.0372V25.0021C86.3495 24.3267 86.6126 23.5647 87.1388 22.7161C87.6484 21.8677 88.2567 21.452 88.9475 21.452C89.8517 21.452 90.5587 22.0234 91.1012 23.1665C91.6438 24.3094 91.9069 25.7814 91.9069 27.5824C91.9069 31.3923 90.9861 33.2972 89.1447 33.2972Z" fill="black"/>
<path d="M131.471 33.2776C131.701 33.3295 132.079 33.4162 132.588 33.5374C132.588 33.5374 133.174 33.599 133.174 34.2877C133.174 34.9762 132.588 35.0047 132.588 35.0047H122.297C122.297 35.0047 121.792 34.8774 121.792 34.2877C121.792 33.6978 122.297 33.599 122.297 33.599C123.016 33.5569 123.244 33.346 123.244 33.346C123.459 33.2941 123.689 33.1729 123.952 33.017C124.478 32.7053 124.577 32.2723 124.577 31.5277V24.9218C124.577 24.2118 124.428 23.9808 124.132 23.6517C123.838 23.3418 123.495 22.88 122.468 22.775C122.468 22.775 121.752 22.7026 121.752 21.7463C121.752 20.7901 122.454 20.5845 122.454 20.5845C124.928 20.1621 126.926 19.7038 127.988 19.3283C127.988 19.3283 128.716 19.0003 129.179 19.1542C129.642 19.3082 129.5 20.1525 129.5 20.1525C129.434 20.7466 129.326 21.6746 129.3 21.8314C129.26 22.0652 129.42 22.2085 129.557 21.9377C130.631 19.812 133.412 18.8302 135.253 18.8302C135.68 18.8302 137.204 18.7559 137.398 19.1542C137.595 19.5525 136.484 20.1521 135.717 21.385C135.212 22.1977 134.652 23.4468 134.548 23.8081C134.446 24.1696 134.001 23.9248 134.001 23.9248C133.197 23.5754 131.916 23.5108 131.196 24.2101C130.308 25.073 130.107 26.254 130.107 27.5875V31.4593C130.107 32.2212 130.254 32.6368 130.748 32.9486C130.995 33.1044 131.225 33.2257 131.471 33.2776Z" fill="black"/>
<path d="M101.355 19.3369C101.355 16.5917 101.67 14.2268 103.466 12.039C105.148 9.99038 106.917 8.92335 109.34 8.92334C109.947 8.92333 111.492 9.09628 111.203 9.8586C111.082 10.1774 110.699 10.6451 110.557 10.8576C110.241 11.3333 110.086 11.4103 109.198 11.5074C106.332 12.072 106.833 17.1332 106.833 19.1212V20.8109C106.833 21.5549 107.886 21.4911 108.27 21.4911C108.653 21.4911 109.487 21.7155 109.487 22.5157C109.487 23.316 108.714 23.553 108.371 23.553C108.028 23.553 106.833 23.4041 106.833 24.7646V26.5713V31.4781C106.833 32.1966 106.894 32.7571 107.341 33.1607C107.624 33.4156 108.132 33.4579 108.472 33.5655C108.472 33.5655 108.996 33.6974 108.996 34.2871C108.996 34.8769 108.362 34.962 108.362 34.962L98.8204 35.0045C98.8204 35.0045 98.24 34.7494 98.24 34.1597C98.24 33.5698 98.8204 33.5026 98.8204 33.5026C99.7298 33.3658 100.38 33.1605 100.753 32.9039C101.127 32.6473 101.322 32.1684 101.322 31.4498V24.3181C101.322 23.1916 100.379 23.2341 99.592 23.1066C98.8044 22.9791 98.3404 22.6364 98.3404 21.9349C98.3404 21.2336 98.9458 20.9108 99.208 20.9246C99.4089 20.9352 100.318 21.066 100.561 21.084L100.569 21.0846C100.815 21.1031 101.355 21.1434 101.355 20.4921V19.3369Z" fill="black"/>
<path d="M112.691 24.7673V31.1625C112.691 33.1608 112.408 33.5006 111.325 33.6339C111.325 33.6339 110.754 33.6339 110.754 34.2873C110.754 34.9407 111.325 35.0044 111.325 35.0044H119.269C119.269 35.0044 119.916 34.9462 119.916 34.3724C119.916 33.7985 119.512 33.5988 119.512 33.5988L119.509 33.598C119.146 33.4737 118.839 33.3689 118.543 33.1442C118.247 32.9191 118.239 32.2547 118.239 31.5274C118.239 31.5274 118.241 25.4898 118.241 24.6397C118.241 23.7894 118.463 23.3232 119.028 23.2368C119.593 23.1502 119.91 22.833 119.88 22.2504C119.85 21.6678 119.572 21.1536 118.947 21.2388C118.322 21.3237 117.01 21.6772 115.577 21.7836C114.143 21.8902 112.994 21.9528 112.227 21.9401C111.46 21.9275 110.922 22.2816 110.922 22.876C110.922 23.4705 111.275 23.7469 111.62 23.7682C111.964 23.7894 112.691 23.7682 112.691 24.7673Z" fill="black"/>
<path fill-rule="evenodd" clip-rule="evenodd" d="M57.4673 33.4099C57.4292 33.3861 57.3919 33.3628 57.3396 33.3378C56.945 33.1473 56.6162 32.593 56.6162 31.606V23.6573C57.4547 22.6009 58.3426 22.0641 59.2633 22.0641C59.921 22.0641 60.3978 22.2718 60.6774 22.6874C60.9568 23.103 61.0884 23.8824 61.0884 25.0426V31.606C61.0884 32.3506 60.9733 32.7836 60.513 33.0953C60.2662 33.2512 60.069 33.3724 59.921 33.4244C59.7566 33.4762 59.6937 33.5009 59.3707 33.6284C59.3707 33.6284 58.9927 33.7618 58.9927 34.2903C58.9927 34.8187 59.4918 34.8963 59.4918 34.8963H68.3919C68.3919 34.8963 68.8763 34.8187 68.8763 34.2873C68.8763 33.7559 68.5397 33.6842 68.5397 33.6842C68.5397 33.6842 67.8067 33.4158 67.3036 33.0953C66.8005 32.7747 66.7116 32.3679 66.7116 31.606V23.5533C67.6325 22.5663 68.5367 22.0641 69.441 22.0641C70.6905 22.0641 71.299 22.7741 71.299 25.0426V31.606C71.299 32.2121 71.2644 32.4719 70.9537 32.9048C70.6646 33.3076 70.1282 33.5138 69.925 33.5918C69.9099 33.5977 69.8965 33.6027 69.8853 33.6071C69.8603 33.617 69.8286 33.6256 69.7926 33.6352C69.5969 33.6876 69.2798 33.7726 69.2798 34.2873C69.2798 34.8963 69.8853 34.8963 69.8853 34.8963H78.8459C78.8459 34.8963 79.4917 34.8825 79.4917 34.3086C79.4917 33.7347 78.8459 33.6709 78.8459 33.6709C78.3685 33.5591 78.1585 33.4673 77.983 33.3906C77.9409 33.3721 77.9008 33.3545 77.8593 33.3378C77.399 33.1473 76.9222 32.593 76.9222 31.606V24.4365C76.9222 22.7741 76.5934 21.4405 75.9356 20.4535C75.2614 19.4663 74.0119 18.9643 72.1704 18.9643C70.8057 18.9643 69.7041 19.2586 68.8984 19.8301C68.0763 20.4189 67.2871 21.2673 66.5471 22.3756H66.4814C65.873 20.1072 64.311 18.9643 61.8284 18.9643C60.365 18.9643 59.3374 19.2621 58.3262 20.0552C57.7631 20.4154 57.3526 20.7037 57.0789 20.92C56.8051 21.1364 56.0679 21.7767 55.9838 21.8572C55.8997 21.9377 55.6372 22.0641 55.7283 21.7851C55.8193 21.5062 56.2427 19.9399 56.2427 19.9399C56.2427 19.9399 56.505 19.1699 56.1215 18.8558C55.7582 18.5582 55.1326 18.9643 55.1326 18.9643C53.5378 19.8473 51.7987 20.2804 48.7239 20.7826C48.7239 20.7826 48.181 20.8211 48.181 21.3391C48.181 21.8572 48.7239 21.9082 48.7239 21.9082C49.6446 21.8563 50.2531 21.9947 50.5326 22.2891C50.8121 22.5836 50.9601 23.0857 50.9601 23.7957V31.606C50.9601 32.3506 50.8286 32.7836 50.3846 33.0953C50.1544 33.2512 49.2714 33.4273 47.8342 33.4273C46.397 33.4273 45.644 32.2019 45.629 31.0691C45.6141 29.9364 45.629 24.2288 45.629 24.2288C45.629 22.5488 45.1523 21.1982 44.1822 20.211C43.212 19.224 41.8638 18.7217 40.1374 18.7217C39.0686 18.7217 37.852 18.9122 36.5038 19.2759C35.1555 19.6395 33.9552 20.1937 32.8865 20.9384C31.8176 21.6831 31.2915 22.497 31.2915 23.3455C31.2915 23.813 31.4559 24.2461 31.7848 24.6444C32.0972 25.0426 32.5412 25.2504 33.1002 25.2504C33.8072 25.2504 34.399 24.9561 34.9087 24.3847C35.4184 23.813 35.8953 22.7741 36.3721 21.2847C36.5694 20.696 36.8654 20.4014 37.2436 20.4014C38.1808 20.4014 38.8878 20.6094 39.3317 21.025C39.7757 21.4579 40.0058 22.3064 40.0058 23.5879V24.3671C40.0058 24.701 39.0194 25.233 38.6247 25.4062C38.4274 25.4929 38.1808 25.5968 37.8684 25.6834C37.6619 25.7406 37.5128 25.7903 37.4165 25.8224C37.3672 25.8389 37.3317 25.8508 37.3094 25.8566C37.1614 25.9085 36.9147 25.9777 36.6023 26.0644C36.0661 26.2358 35.5968 26.3838 35.191 26.5116C34.9003 26.6033 34.6422 26.6848 34.4156 26.7571C33.8729 26.9475 33.2974 27.1727 32.6891 27.4671C32.0644 27.7614 31.5875 28.0731 31.275 28.3676C30.6174 28.991 30.1077 29.9608 30.1077 31.1384C30.1077 32.4373 30.5517 33.3897 31.4395 33.9957C32.311 34.6019 33.3468 34.8963 34.547 34.8963C36.6353 34.9136 38.4603 33.9957 40.0058 32.1429C40.0717 32.8529 40.4334 33.4762 41.1075 34.0478C41.7652 34.6193 42.4558 34.8963 43.1792 34.8963L46.5991 34.8971C46.8473 34.8967 47.082 34.8967 47.4134 34.8969C47.6209 34.8969 47.8662 34.8971 48.1764 34.8971H48.7239L57.9985 34.8963C57.9985 34.8963 58.3819 34.8187 58.3819 34.2873C58.3819 33.7559 57.9985 33.6284 57.9985 33.6284C57.6596 33.53 57.561 33.4683 57.4673 33.4099ZM36.1986 31.6456C36.4946 32.1478 36.9386 32.3902 37.514 32.3902C38.2867 32.3902 39.1088 31.7669 40.0133 30.5374V26.6062L37.8593 27.1777C36.5274 27.5932 35.7383 28.7536 35.7383 29.9486C35.7383 30.5892 35.8862 31.1434 36.1986 31.6456Z" fill="black"/>
<path d="M16.2847 28.1873C17.9272 31.1428 19.5677 32.1408 23.0656 32.1408C24.5792 32.1408 25.9313 31.6308 27.1625 31.0496C28.3935 30.4685 29.1402 31.1711 29.1199 31.9323C29.0998 32.6935 28.6156 33.1824 28.0908 33.5651C27.5661 33.9476 25.6922 35.032 21.8081 35.032C17.9239 35.032 14.7819 33.941 12.4317 31.7591C10.0814 29.6031 8.75696 26.6419 8.75696 22.9014C8.75696 19.031 10.1308 16.0439 12.6296 13.888C15.1036 11.7319 18.202 10.3853 22.2286 10.667C25.3198 10.8832 26.6985 11.6029 28.3314 12.9016C29.9642 14.2004 30.5218 16.1622 30.59 16.7942C30.7345 18.1332 30.6958 19.0696 29.2212 19.3894C26.8941 19.894 26.1591 18.0919 25.8675 17.0827C25.5758 16.0734 23.8142 13.409 21.5556 13.19C16.8331 12.7318 15.3816 16.7314 15.0537 19.3894C14.7256 22.0472 14.642 25.2317 16.2847 28.1873Z" fill="black"/>
<path d="M147.371 31.8678C144.756 31.8678 143.079 29.9975 142.569 26.8285H151.514C152.353 24.9408 152.107 23.1225 150.79 21.356C149.475 19.5897 147.535 18.7065 144.986 18.7065C142.717 18.7065 140.761 19.4339 139.133 20.8713C137.49 22.3086 136.667 24.3001 136.667 26.8285C136.667 29.3049 137.439 31.2791 139.001 32.7511C140.548 34.223 142.569 34.9503 145.085 34.9503C146.73 34.9503 148.143 34.6213 149.31 33.946C150.478 33.2879 151.251 32.3874 151.662 31.2618C151.662 31.2618 151.783 30.8346 151.514 30.5518C151.245 30.2688 150.873 30.5518 150.873 30.5518C150.593 30.9327 150.1 31.2445 149.426 31.4869C148.751 31.7466 148.061 31.8678 147.371 31.8678ZM144.756 20.3171C145.563 20.3171 146.104 20.8192 146.384 21.8237C146.647 22.8455 146.63 23.9884 146.335 25.2699H142.421V24.9581C142.421 21.841 143.31 20.3171 144.756 20.3171Z" fill="black"/>
<path fill-rule="evenodd" clip-rule="evenodd" d="M116.644 20.2368C118.33 19.6848 119.553 18.0312 119.553 16.0771C119.553 13.2457 116.239 8.88965 115.411 8.88965C114.582 8.88965 111.269 12.8101 111.269 16.0771C111.269 18.0314 112.492 19.685 114.178 20.2369C113.725 19.8471 113.436 19.2475 113.436 18.5748C113.436 16.9793 115.016 15.0646 115.412 15.0646C115.806 15.0646 117.387 17.192 117.387 18.5748C117.387 19.2474 117.097 19.847 116.644 20.2368Z" fill="black"/>
</g>
<defs>
<clipPath id="clip0_5431_5127">
<rect width="144" height="35" fill="white" transform="translate(8 8)"/>
</clipPath>
</defs>
</svg>
