<svg width="160" height="48" viewBox="0 0 160 48" fill="none" xmlns="http://www.w3.org/2000/svg">
<g clip-path="url(#clip0_5431_5109)">
<path d="M16.0114 17.0449C20.527 15.3994 25.2297 17.5217 26.922 22.1683C27.0342 22.4768 27.1931 23.0564 27.2585 23.3743C27.3707 23.8231 27.137 24.2531 26.7443 24.3934L14.9362 28.6941C15.9179 30.994 18.7975 32.546 21.6209 31.5269C23.1823 30.9566 24.3603 29.7412 25.0241 28.8624C25.4354 28.3668 25.6785 28.0864 26.1834 28.3949L27.9972 29.6009C28.4272 29.8347 28.6797 30.1339 28.3243 30.7603C27.4642 32.3029 25.5943 34.2101 22.6867 35.2666C17.4418 37.1833 12.468 34.3223 10.6449 29.3298C8.85915 24.4214 10.8038 18.9428 16.0114 17.0449ZM22.5932 22.8134C21.7051 20.7753 19.321 19.6253 17.1893 20.4013C14.8427 21.2521 13.6366 23.6081 14.1695 25.8799L22.5932 22.8134Z" fill="black"/>
<path d="M36.8509 17.0449C41.3666 15.3994 46.0693 17.5217 47.7616 22.1683C47.8737 22.4768 48.0327 23.0564 48.0981 23.3743C48.2103 23.8231 47.9766 24.2531 47.5839 24.3934L35.7758 28.6941C36.7575 30.994 39.6371 32.546 42.4605 31.5269C44.0218 30.9566 45.1999 29.7412 45.8636 28.8624C46.275 28.3668 46.5181 28.0864 47.0229 28.3949L48.8367 29.6009C49.2667 29.8347 49.5192 30.1339 49.1639 30.7603C48.3038 32.3029 46.4339 34.2101 43.5263 35.2666C38.2721 37.1833 33.2982 34.3223 31.4751 29.3204C29.6988 24.4214 31.6434 18.9428 36.8509 17.0449ZM43.4328 22.8134C42.5447 20.7752 40.1606 19.6253 38.0289 20.4013C35.6823 21.2521 34.4762 23.6081 35.0092 25.8799L43.4328 22.8134Z" fill="black"/>
<path d="M57.7 17.0449C62.2157 15.3994 66.9184 17.5217 68.6107 22.1683C68.7229 22.4768 68.8818 23.0564 68.9472 23.3743C69.0594 23.8231 68.8257 24.2531 68.433 24.3934L56.6249 28.6941C57.6066 30.994 60.4861 32.546 63.3096 31.5269C64.8709 30.9566 66.0489 29.7412 66.7127 28.8624C67.1241 28.3668 67.3672 28.0864 67.872 28.3949L69.6858 29.6009C70.1159 29.8347 70.3683 30.1339 70.0131 30.7603C69.1529 32.3029 67.2831 34.2101 64.3754 35.2666C59.1211 37.1833 54.1473 34.3223 52.3242 29.3204C50.5478 24.4214 52.4831 18.9428 57.7 17.0449ZM64.2725 22.8134C63.3844 20.7752 61.0003 19.6253 58.8687 20.4013C56.522 21.2521 55.3159 23.6081 55.8489 25.8799L64.2725 22.8134Z" fill="black"/>
<path d="M86.5143 18.1153C86.2343 17.517 86.5143 17.0495 87.1593 17.0495H89.6555C89.983 17.0495 90.3943 17.2832 90.488 17.6011L93.5824 27.8105H93.6293L98.5749 17.0401C98.6686 16.8064 98.9862 16.582 99.3605 16.582H99.6405C100.052 16.582 100.332 16.8158 100.426 17.0401L105.325 27.8573H105.372L108.42 17.6011C108.654 17.0495 109.346 17.0495 109.85 17.0495H111.654C112.3 17.0495 112.627 17.5076 112.346 18.1153L106.942 35.5331C106.849 35.8135 106.531 35.9912 106.111 35.9912H105.924C105.549 35.9912 105.232 35.8042 105.138 35.5798L99.4537 23.2387H99.4068L93.7693 35.5892C93.6762 35.8229 93.3955 36.0005 93.0312 36.0005H92.7974C92.423 36.0005 92.1055 35.8135 92.0118 35.5424L86.5143 18.1153Z" fill="black"/>
<path d="M120.602 17.0449C125.118 15.3994 129.821 17.5217 131.513 22.1683C131.625 22.4768 131.784 23.0564 131.849 23.3743C131.962 23.8231 131.728 24.2531 131.335 24.3934L119.527 28.6941C120.509 30.994 123.388 32.546 126.212 31.5269C127.773 30.9566 128.951 29.7412 129.615 28.8624C130.026 28.3668 130.269 28.0864 130.774 28.3949L132.588 29.6009C133.018 29.8347 133.271 30.1339 132.916 30.7603C132.055 32.3029 130.186 34.2101 127.277 35.2666C122.023 37.1833 117.049 34.3223 115.226 29.3204C113.45 24.4214 115.385 18.9428 120.602 17.0449ZM127.175 22.8134C126.287 20.7752 123.902 19.6253 121.771 20.4013C119.424 21.2521 118.218 23.6081 118.751 25.8799L127.175 22.8134Z" fill="black"/>
<path d="M136.318 11.9057C136.318 11.4476 136.729 11.0269 137.197 11.0269H139.834C140.292 11.0269 140.712 11.4382 140.712 11.9057V34.6618C140.712 35.12 140.301 35.5407 139.834 35.5407H137.197C136.739 35.5407 136.318 35.1293 136.318 34.6618V11.9057Z" fill="black"/>
<path d="M81.6437 17.0583H79.7269V11.9069C79.7269 11.776 79.6894 11.6451 79.6244 11.5236C79.4931 11.2244 79.2031 11 78.8668 11L77.4831 11.028H76.2119C75.7537 11.028 75.3331 11.4394 75.3331 11.9069V17.0583H73.4162C72.9112 17.0583 72.5375 17.4323 72.5375 17.9372V20.0127C72.5375 20.4708 72.9112 20.8916 73.4162 20.8916H75.3331V34.6631C75.3331 35.1212 75.7444 35.5419 76.2119 35.5419H78.8481C79.3062 35.5419 79.7269 35.1305 79.7269 34.6631V20.8916H81.6437C82.1487 20.8916 82.5225 20.4802 82.5225 20.0127V17.9278C82.5225 17.4229 82.1575 17.0583 81.6437 17.0583Z" fill="black"/>
<path d="M145.022 11.9057C145.022 11.4476 145.434 11.0269 145.901 11.0269H148.538C148.996 11.0269 149.417 11.4382 149.417 11.9057V34.6618C149.417 35.12 149.006 35.5407 148.538 35.5407H145.901C145.443 35.5407 145.022 35.1293 145.022 34.6618V11.9057Z" fill="black"/>
</g>
<defs>
<clipPath id="clip0_5431_5109">
<rect width="140" height="25" fill="white" transform="translate(10 11)"/>
</clipPath>
</defs>
</svg>
