<svg width="160" height="48" viewBox="0 0 160 48" fill="none" xmlns="http://www.w3.org/2000/svg">
<path d="M48.0162 38.0368V23.9805C48.0162 20.7747 46.4069 19.7712 43.8814 19.7712C42.8947 19.7941 41.9268 20.0515 41.0539 20.5232C40.1761 20.9988 39.4167 21.6745 38.8343 22.4982V38.0368H33V6.14344H38.8343V17.954C39.8075 16.8112 41.0107 15.8976 42.3611 15.2756C43.7053 14.6572 45.1653 14.347 46.6388 14.367C51.5042 14.367 53.8467 17.1403 53.8467 21.6384V38.0394H48.0162V38.0368ZM68.923 38.4308C62.1676 38.4308 57.2582 33.5734 57.2582 26.0261C57.2582 18.4801 62.0422 13.6253 68.923 13.6253C75.6371 13.6253 80.3785 18.3531 80.3785 25.5051C80.3847 26.2905 80.3283 27.0733 80.2105 27.8485H63.2178C63.5111 31.4033 65.8624 33.4001 68.8127 33.4001C71.3307 33.4001 72.7156 32.0988 73.4701 30.5088H79.807C78.5474 34.9183 74.6871 38.4308 68.9243 38.4308H68.923ZM63.258 23.7752H74.3086C74.2246 20.6079 71.7906 18.6123 68.7689 18.6123C65.9576 18.6123 63.7342 20.4783 63.273 23.7739H63.258V23.7752ZM83.4115 6.14344H89.0967V38.0368H83.4115V6.14344ZM92.8867 7.7168C92.8867 5.7302 94.397 4.1748 96.4951 4.1748C98.5919 4.1748 100.088 5.7148 100.088 7.7168C100.088 9.7188 98.5368 11.2588 96.4813 11.2588C94.4258 11.2588 92.8867 9.68929 92.8867 7.7168V7.7168ZM93.5159 14.1104H99.389V38.0368H93.5159V14.1104Z" fill="black"/>
<path d="M121.742 25.4372C121.641 23.6204 120.871 21.9102 119.589 20.6503C118.317 19.4016 116.624 18.7038 114.861 18.7022C113.1 18.7041 111.407 19.4019 110.135 20.6503C108.853 21.9102 108.083 23.6204 107.982 25.4372H102.742C102.738 22.1053 104.014 18.9055 106.294 16.5283C107.413 15.3614 108.747 14.4341 110.22 13.8004C111.692 13.1668 113.273 12.8394 114.87 12.8374C116.467 12.8395 118.048 13.1669 119.521 13.8005C120.993 14.4342 122.328 15.3614 123.447 16.5283C125.727 18.9053 127.003 22.1051 127 25.4372H121.742ZM115.126 38.8249C112.848 38.8234 110.619 38.1507 108.704 36.8871C106.772 35.6109 105.231 33.8028 104.258 31.6703L108.971 29.3744C109.516 30.5524 110.368 31.554 111.432 32.2696C112.487 32.9782 113.715 33.3695 114.977 33.399C116.237 33.4266 117.48 33.0913 118.564 32.4313C119.657 31.765 120.549 30.8032 121.143 29.6516L125.863 31.9514C124.857 34.0074 123.319 35.7409 121.416 36.9628C119.53 38.1726 117.351 38.8177 115.126 38.8249V38.8249Z" fill="black"/>
</svg>
