<svg width="160" height="48" viewBox="0 0 160 48" fill="none" xmlns="http://www.w3.org/2000/svg">
<g clip-path="url(#clip0_5431_5096)">
<path d="M44.1664 18.6943C43.409 19.4364 42.4756 19.901 41.4978 20.0887C42.8603 23.6814 41.9766 27.7928 39.1794 30.5331C37.2489 32.4245 34.651 33.4256 32.0209 33.4256C30.837 33.4256 29.6471 33.2198 28.5082 32.8036C28.3186 33.7666 27.8433 34.6865 27.0821 35.4323C25.0546 37.4186 21.7675 37.4186 19.74 35.4323C17.7126 33.4461 17.7126 30.2254 19.74 28.2391C20.4969 27.4977 21.4295 27.0332 22.4064 26.8453C21.0174 23.2412 21.8956 19.1053 24.7053 16.3525C27.5125 13.602 31.7292 12.7407 35.4056 14.0964C35.5996 13.1455 36.072 12.2383 36.8243 11.501C38.8518 9.51476 42.139 9.51476 44.1664 11.501C46.1939 13.4874 46.1939 16.708 44.1664 18.6943ZM31.9424 1C19.2717 1 9.00006 11.0634 9.00006 23.4773C9.00006 35.8911 19.2717 45.9545 31.9424 45.9545C44.6132 45.9545 54.8848 35.8911 54.8848 23.4773C54.8848 11.0634 44.6132 1 31.9424 1ZM34.653 26.0984C33.1698 27.5517 30.7649 27.5517 29.2816 26.0984C27.7984 24.6452 27.7984 22.2891 29.2816 20.8359C30.7649 19.3828 33.1698 19.3828 34.653 20.8359C36.1363 22.2891 36.1363 24.6452 34.653 26.0984ZM38.0408 12.6929C37.26 13.4579 36.902 14.5528 37.0832 15.6219C37.1465 15.9718 37.1082 16.3318 36.9494 16.6677C36.7445 17.1011 36.3799 17.4122 35.9558 17.5652C35.5309 17.7183 35.0463 17.7126 34.6033 17.5115C32.1163 16.3831 29.1431 16.9017 27.2044 18.8011C25.2661 20.7001 24.7371 23.6127 25.8879 26.0489C26.096 26.4893 26.0982 26.9709 25.9351 27.3913C25.7766 27.7992 25.4626 28.1495 25.0264 28.3474C24.7863 28.4563 24.5337 28.508 24.2852 28.508C24.1671 28.508 24.051 28.4923 23.9364 28.4697C22.8014 28.3174 21.7401 28.6628 20.9701 29.4175C20.3225 30.0519 19.9659 30.8955 19.9659 31.7929C19.9659 32.69 20.3225 33.5335 20.9701 34.1682C22.3071 35.4775 24.4822 35.4775 25.819 34.1682C26.5996 33.4028 26.9578 32.308 26.7765 31.2394C26.7667 31.1808 26.7689 31.1237 26.7765 31.0679C26.7558 30.7851 26.8051 30.4933 26.9354 30.2178C27.1394 29.786 27.5023 29.4757 27.9243 29.3223C28.3504 29.1674 28.8367 29.1723 29.2815 29.3741C31.7686 30.5027 34.7417 29.9835 36.6803 28.0845C38.6188 26.1854 39.1478 23.2727 37.9968 20.8366C37.7937 20.4068 37.7864 19.9372 37.9381 19.524C38.0925 19.1033 38.4115 18.7408 38.8583 18.5381C39.1721 18.3957 39.5065 18.353 39.8261 18.3937C39.8756 18.388 39.9259 18.3862 39.9776 18.3934C41.0586 18.5443 42.1193 18.1982 42.8895 17.4434C44.2263 16.1337 44.2263 14.0026 42.8895 12.6929C41.5528 11.383 39.3776 11.383 38.0408 12.6929ZM99.2506 30.3043C99.379 30.2938 99.4754 30.2886 99.5396 30.2886V33.5913C98.7904 33.738 98.2019 33.8114 97.7737 33.8114C96.3397 33.8114 95.2214 33.4549 94.4189 32.742C93.6162 32.0291 93.2149 30.9176 93.2149 29.4079V10.8816H97.2601V28.7473C97.2601 29.2716 97.3671 29.6648 97.5811 29.9269C97.7951 30.189 98.2232 30.32 98.8653 30.32C98.9937 30.32 99.1222 30.3148 99.2506 30.3043ZM101.474 33.6227H105.551V17.2667H101.474V33.6227ZM118.915 17.2667H122.928V33.6227H119.589L119.3 31.4838C118.893 32.2807 118.262 32.9045 117.406 33.3554C116.55 33.8062 115.586 34.0316 114.516 34.0316C112.74 34.0316 111.333 33.4969 110.295 32.4275C109.257 31.358 108.738 29.9426 108.738 28.1812V17.2667H112.751V27.3005C112.751 29.3764 113.714 30.4144 115.64 30.4144C116.453 30.4144 117.138 30.1418 117.695 29.5966C118.508 28.8627 118.915 27.6361 118.915 25.9166V17.2667ZM150 22.5825V33.6227H146.019V23.4632C146.019 22.3937 145.832 21.5969 145.457 21.0726C145.083 20.5484 144.414 20.2863 143.451 20.2863C142.402 20.2863 141.594 20.7319 141.027 21.6231C140.46 22.5142 140.176 23.5365 140.176 24.6898V33.6227H136.195V23.4632C136.195 22.3937 136.008 21.5969 135.633 21.0726C135.259 20.5484 134.59 20.2863 133.627 20.2863C132.578 20.2863 131.765 20.7319 131.187 21.6231C130.609 22.5142 130.32 23.5365 130.32 24.6898V33.6227H126.339V17.2667H129.678L129.999 19.437C131.069 17.7176 132.653 16.8578 134.75 16.8578C137.04 16.8578 138.635 17.749 139.534 19.5314C140.583 17.749 142.263 16.8578 144.574 16.8578C146.308 16.8578 147.646 17.3767 148.587 18.4148C149.529 19.4528 150 20.842 150 22.5825ZM101.345 15.002H105.647V10.9445H101.345V15.002ZM72.3629 18.4935C73.3688 19.5838 73.8718 20.9887 73.8718 22.7082V33.6227H69.8587V23.526C69.8587 22.5195 69.6501 21.7594 69.2327 21.2456C68.8153 20.7319 68.1037 20.475 67.0978 20.475C65.9847 20.475 65.134 20.9415 64.5454 21.8747C63.9568 22.8078 63.6625 23.8511 63.6625 25.0043V33.6227H59.6494V10.913H63.6625V18.9967C64.1334 18.3257 64.7862 17.8014 65.6209 17.4239C66.4557 17.0466 67.3225 16.8578 68.2214 16.8578C69.9764 16.8578 71.3569 17.403 72.3629 18.4935ZM79.9156 23.8091C79.937 22.8026 80.2259 21.9534 80.7824 21.2613C81.4244 20.4226 82.3554 20.0032 83.5754 20.0032C84.6671 20.0032 85.5124 20.3177 86.1117 20.9468C86.7752 21.6597 87.1176 22.6139 87.1391 23.8091H79.9156ZM83.6075 16.8578C81.4244 16.8578 79.6479 17.5498 78.2782 18.9338C76.6729 20.5484 75.8703 22.7292 75.8703 25.4763C75.8703 28.2232 76.7265 30.4039 78.4387 32.0185C79.8728 33.3605 81.6277 34.0316 83.7038 34.0316C86.1224 34.0316 87.9952 33.2662 89.3221 31.7355C90.1569 30.75 90.6277 29.7434 90.7348 28.7159H86.8822C86.7324 29.261 86.4649 29.7224 86.0796 30.0998C85.5445 30.6241 84.7313 30.8862 83.6396 30.8862C82.7194 30.8862 81.8954 30.5507 81.1676 29.8796C80.3114 29.0829 79.9049 28.0135 79.9477 26.6714H91.12C91.12 26.4407 91.1308 26.0738 91.1521 25.5706C91.2163 23.3059 90.7348 21.4081 89.7074 19.8774C88.3376 17.8643 86.3044 16.8578 83.6075 16.8578Z" fill="black"/>
</g>
<defs>
<clipPath id="clip0_5431_5096">
<rect width="141" height="46" fill="white" transform="translate(9 1)"/>
</clipPath>
</defs>
</svg>
