<svg width="160" height="48" viewBox="0 0 160 48" fill="none" xmlns="http://www.w3.org/2000/svg">
<g clip-path="url(#clip0_5431_5104)">
<path fill-rule="evenodd" clip-rule="evenodd" d="M32.7074 10L11.1752 16.372L4 38.3269L26.2475 31.9536L32.7074 10V10ZM18.3531 27.7043C19.3049 27.7043 20.2177 27.3312 20.8908 26.667C21.5638 26.0028 21.942 25.1021 21.942 24.1628C21.942 23.2235 21.5638 22.3227 20.8908 21.6586C20.2177 20.9944 19.3049 20.6213 18.3531 20.6213C17.4014 20.6213 16.4887 20.9943 15.8158 21.6584C15.1428 22.3224 14.7648 23.223 14.7648 24.1621C14.7648 25.1012 15.1428 26.0019 15.8158 26.6659C16.4887 27.3299 17.4014 27.703 18.3531 27.703V27.7043Z" fill="black"/>
<path d="M126.206 26.0238V36.0138H131.209V24.9438C131.209 20.4695 129.841 16.9981 124.407 16.9981C121.671 16.9981 119.756 18.1938 118.74 20.161H118.622L118.662 17.3452H113.658V36.0138H118.662V26.7181C118.662 23.5938 119.717 21.0481 122.805 21.0481C125.697 21.0481 126.206 23.2467 126.206 26.0238V26.0238ZM104.484 33.8551L104.563 36.0151H109.37V25.3308C109.37 22.168 108.667 20.4708 107.299 19.1594C105.892 17.848 103.976 16.9994 100.615 16.9994C97.3313 16.9994 94.6734 18.118 93.2271 18.9665L94.7515 22.1294C95.5724 21.5122 97.644 20.5865 100.146 20.5865C102.765 20.5865 104.367 21.7051 104.367 24.0965V24.598L99.833 24.9065C95.9242 25.1765 92.0545 26.6808 92.0545 30.5765C92.0545 34.4722 95.0252 36.4394 98.6994 36.4394C101.514 36.4394 103.703 35.2051 104.484 33.8551V33.8551ZM101.006 27.7994L104.406 27.6065V31.0394C103.742 31.9651 102.295 33.0837 100.341 33.0837C98.2694 33.0837 97.0577 32.0037 97.0577 30.4222C97.0577 28.8408 98.3476 27.9537 101.006 27.7994ZM67.5321 27.8727H81.4473C81.4473 27.8727 81.5255 26.3298 81.5255 25.3655C81.5255 20.3898 78.0076 16.6098 72.1835 16.6098C66.7894 16.6098 62.3725 20.6212 62.3725 26.5998C62.3725 32.617 66.594 36.0498 72.3008 36.0498C76.9132 36.0498 79.7666 34.1212 80.8219 33.0412L78.8676 30.3798C77.9685 31.1512 75.7014 32.2698 73.1607 32.2698C70.3073 32.2698 68.0011 30.8427 67.5321 27.8727V27.8727ZM72.1444 20.2741C75.6624 20.2741 76.4441 22.627 76.5223 24.6712H67.4539C67.6103 22.3184 69.1738 20.2741 72.1444 20.2741ZM50.1888 11.8887V31.8481H59.609V36.0138H45.1465V11.8887H50.1888V11.8887ZM88.6981 11.8887V36.0138H83.734V11.8887H88.6981Z" fill="black"/>
<path fill-rule="evenodd" clip-rule="evenodd" d="M154.874 11.8887V36.0138H150.144L150.105 33.0824H149.988C148.463 35.4738 146.118 36.4381 143.499 36.4381C137.949 36.4381 134.547 32.1952 134.547 26.641C134.547 21.3567 138.105 16.9981 143.851 16.9981C146.392 16.9981 148.542 17.9238 149.871 19.9295H149.949C149.91 19.081 149.91 18.0781 149.91 16.7667V11.8887H154.874V11.8887ZM139.63 26.641C139.63 29.881 141.662 32.4267 144.906 32.4267C147.916 32.4267 150.027 30.151 150.027 26.641C150.027 23.5167 147.955 20.7781 144.75 20.7781C141.506 20.7781 139.63 23.5167 139.63 26.641Z" fill="black"/>
</g>
<defs>
<clipPath id="clip0_5431_5104">
<rect width="151" height="28" fill="white" transform="translate(4 10)"/>
</clipPath>
</defs>
</svg>
