<svg width="160" height="48" viewBox="0 0 160 48" fill="none" xmlns="http://www.w3.org/2000/svg">
<g clip-path="url(#clip0_7401_2574)">
<path d="M124.928 12H121.294V33.4414H124.928V12Z" fill="black"/>
<path d="M92.6621 33.4482V26.7459L99.5327 33.4556H104.386L96.3532 25.5888L103.991 18.7091H99.2476L92.6621 24.7127V12.0068H89.0859V33.4482H92.6621Z" fill="black"/>
<path fill-rule="evenodd" clip-rule="evenodd" d="M77.2102 33.7555C80.39 33.7555 81.7799 31.6852 82.0644 31.1012L82.0681 33.4301H85.669V18.6836H82.0356V20.9017C81.7259 20.2917 80.2783 18.3657 77.2391 18.3657C73.5193 18.3657 70.4548 21.2566 70.4548 26.0625C70.4548 30.8682 73.5192 33.7555 77.2102 33.7555ZM74.1458 26.0661C74.1458 23.5524 75.7339 21.63 78.1753 21.63V21.6448C80.5305 21.6448 82.0933 23.5524 82.0933 26.0661C82.0933 28.5799 80.5305 30.5023 78.1753 30.5023C75.7339 30.5023 74.1458 28.5799 74.1458 26.0661Z" fill="black"/>
<path d="M46.8243 33.4493H43.2233V18.7028H46.8243V21.1796C47.2982 20.3264 47.9844 19.6177 48.8126 19.126C49.6408 18.6343 50.5815 18.3773 51.5381 18.3812C54.0049 18.3812 55.8594 19.664 56.7597 21.675C57.2406 20.6644 57.994 19.8168 58.9305 19.2329C59.8669 18.649 60.947 18.3534 62.0423 18.3812C65.6757 18.3812 68.002 21.0909 68.002 24.8506V33.4493H64.3686V25.5825C64.3686 23.2499 63.0902 21.7046 60.962 21.7046C58.8338 21.7046 57.4113 23.2794 57.4113 25.5825V33.4493H53.7744V25.5825C53.7744 23.2499 52.4996 21.7046 50.3678 21.7046C48.236 21.7046 46.8208 23.2794 46.8208 25.5825L46.8243 33.4493Z" fill="black"/>
<path fill-rule="evenodd" clip-rule="evenodd" d="M118.74 26.701V26.2944C118.74 21.4886 115.61 18.3315 111.209 18.3315C106.809 18.3315 103.688 21.5182 103.688 26.0948C103.688 30.5309 106.838 33.858 111.494 33.858C116.377 33.858 118.336 30.6788 118.563 29.1631H114.984C114.735 29.5735 113.792 30.7675 111.494 30.7675C110.96 30.7833 110.427 30.6904 109.929 30.4943C109.429 30.2982 108.972 30.0028 108.584 29.6249C108.197 29.247 107.885 28.7941 107.668 28.2924C107.451 27.7906 107.334 27.2498 107.321 26.701H118.74ZM114.937 24.1355H107.44V24.1207C107.894 22.2871 109.258 21.2076 111.217 21.2224C113.06 21.2224 114.397 22.2871 114.937 24.1355Z" fill="black"/>
<path fill-rule="evenodd" clip-rule="evenodd" d="M142.942 26.0777C142.942 30.5656 139.59 33.841 135.218 33.841C130.792 33.841 127.469 30.5767 127.469 26.0777C127.469 21.5787 130.792 18.3145 135.218 18.3145C139.59 18.3255 142.942 21.5861 142.942 26.0777ZM139.28 26.0777C139.28 23.5676 137.631 21.6415 135.218 21.6415C132.805 21.6415 131.131 23.6231 131.131 26.0777C131.131 28.5323 132.805 30.5139 135.218 30.5139C137.631 30.5139 139.28 28.5841 139.28 26.0777Z" fill="black"/>
<path fill-rule="evenodd" clip-rule="evenodd" d="M156.395 31.0317C156.082 31.6713 154.577 33.7119 151.454 33.7119C147.706 33.7119 144.613 30.8284 144.613 26.0484C144.613 21.2685 147.706 18.3813 151.454 18.3813C154.577 18.3813 156.054 20.3924 156.367 20.9469V18.703H160V33.1205C160 37.1869 157.479 40.0001 152.276 40.0001C146.741 40.0001 144.952 36.4734 144.713 35.394H148.888C148.899 35.4088 148.912 35.4261 148.927 35.4455C149.199 35.8074 150.03 36.9096 152.265 36.9096C154.879 36.9096 156.385 35.5123 156.385 33.065L156.395 31.0317ZM152.391 21.6456C149.892 21.6456 148.304 23.5679 148.304 26.0484C148.304 28.529 149.892 30.4477 152.391 30.4477C154.832 30.4477 156.424 28.4957 156.424 26.0484C156.424 23.6012 154.832 21.6456 152.391 21.6456Z" fill="black"/>
<path d="M5.76165 12.7827H0V18.6976H5.76165V12.7827Z" fill="black"/>
<path d="M11.5343 12.7827V18.6976H17.296V33.4847H23.0576V24.6124C23.0576 21.475 21.8436 18.466 19.6826 16.2475C17.5215 14.029 14.5905 12.7827 11.5343 12.7827Z" fill="black"/>
<path d="M23.057 12.7827V18.6976H28.8186V33.4847H34.5802V24.6124C34.5802 21.475 33.3662 18.466 31.2052 16.2475C29.0442 14.029 26.1132 12.7827 23.057 12.7827Z" fill="black"/>
<path d="M11.523 18.6992H5.76135V33.4864H11.523V18.6992Z" fill="black"/>
</g>
<defs>
<clipPath id="clip0_7401_2574">
<rect width="160" height="28" fill="white" transform="translate(0 12)"/>
</clipPath>
</defs>
</svg>
