<svg width="160" height="48" viewBox="0 0 160 48" fill="none" xmlns="http://www.w3.org/2000/svg">
<g clip-path="url(#clip0_7545_2662)">
<path d="M9.5128 7H0V40.0642H5.04266V25.0829H9.5128C11.6158 25.0829 13.2673 23.3951 13.2673 21.3895V10.781C13.2562 8.6439 11.6047 7 9.5128 7ZM8.25763 21.4882C8.25763 21.8937 8.08147 22.2882 7.71814 22.5512L5.21882 24.4143C5.13074 24.4581 5.04266 24.4143 5.04266 24.3266V7.75619C5.04266 7.66852 5.13074 7.62468 5.21882 7.66852L7.71814 9.44392C8.07047 9.70695 8.25763 10.1124 8.25763 10.5508V21.4882Z" fill="black"/>
<path d="M15.2711 7V40.0642H20.3138V7H15.2711Z" fill="black"/>
<path d="M35.6289 21.2691V10.8248C35.6289 8.73157 33.8894 7 31.6983 7H22.3176V40.0642H27.4153V25.1267H30.4542V40.0533H35.4968V28.0638C35.4968 27.2199 35.0014 26.4637 34.2417 26.0692L32.37 25.0938C34.1976 24.776 35.6289 23.176 35.6289 21.2691ZM30.5423 21.6197C30.5423 22.0143 30.3661 22.4197 30.0028 22.6827L27.5475 24.4581C27.5035 24.5021 27.4153 24.4581 27.4153 24.3704V7.75619C27.4153 7.66852 27.5035 7.62468 27.5475 7.66852L30.0028 9.53159C30.3551 9.79462 30.5423 10.2001 30.5423 10.5946V21.6197Z" fill="black"/>
<path d="M47.1456 7H37.6328V40.0642H42.6754V25.1267H45.8464V40.0533H50.845V10.7371C50.856 8.68773 49.2046 7 47.1456 7ZM45.8464 21.6197C45.8464 22.0143 45.6703 22.4197 45.3069 22.6827L42.8076 24.5021C42.7636 24.5459 42.6754 24.5021 42.6754 24.4143V7.75619C42.6754 7.66852 42.7636 7.62468 42.8076 7.66852L45.3069 9.48776C45.6592 9.75078 45.8464 10.5946 45.8464 11.0001V21.6197Z" fill="black"/>
<path d="M52.4084 7V11.581H60.4018C60.4899 11.581 60.5339 11.6248 60.5339 11.6687C60.5339 11.7125 60.4899 11.7563 60.4459 11.8002L55.9758 14.0687L56.4272 40.0642H61.5579V11.581H65.4004V7H52.4084Z" fill="black"/>
<path d="M72.1497 7.66852L74.2087 9.26858C74.5169 9.53159 74.7481 9.89325 74.7481 10.3316L74.7922 15.888L79.6586 13.8386V8.90692C79.6586 7.84387 78.8109 7 77.787 7H66.986V40.0642H77.787C78.8109 40.0642 79.6586 39.2203 79.6586 38.1573V33.2257L74.7922 31.1324L74.7481 36.7326C74.7481 37.171 74.5279 37.5326 74.2087 37.7956L72.1497 39.3956C72.0616 39.4396 72.0176 39.3956 72.0176 39.3081V24.6445H75.2767V21.3567L72.1497 23.8006C72.0616 23.8444 72.0176 23.8444 72.0176 23.7567V7.75619C72.0176 7.66852 72.0616 7.62468 72.1497 7.66852Z" fill="black"/>
<path d="M110.355 7V40.0642H115.398V7H110.355Z" fill="black"/>
<path d="M130.713 21.2691V10.8248C130.713 8.73157 128.974 7 126.782 7H117.401V40.0642H122.488V25.1267H125.527V40.0533H130.57V28.0638C130.57 27.2199 130.074 26.4637 129.314 26.0692L127.443 25.0938C129.281 24.776 130.713 23.176 130.713 21.2691ZM125.615 21.6197C125.615 22.0143 125.439 22.4197 125.075 22.6827L122.621 24.4581C122.576 24.5021 122.488 24.4581 122.488 24.3704V7.75619C122.488 7.66852 122.576 7.62468 122.621 7.66852L125.075 9.53159C125.429 9.79462 125.615 10.2001 125.615 10.5946V21.6197Z" fill="black"/>
<path d="M137.891 7.66852L139.951 9.26858C140.258 9.53159 140.49 9.89325 140.49 10.3316L140.534 15.888L145.4 13.8386V8.90692C145.4 7.84387 144.553 7 143.529 7H132.728V40.0642H143.529C144.553 40.0642 145.4 39.2203 145.4 38.1573V33.2257L140.534 31.1324L140.49 36.7326C140.49 37.171 140.27 37.5326 139.951 37.7956L137.891 39.3956C137.803 39.4396 137.759 39.3956 137.759 39.3081V23.8006C137.759 23.7129 137.803 23.7567 137.891 23.7567L140.975 26.2007V22.9129H137.759V7.75619C137.759 7.66852 137.803 7.62468 137.891 7.66852Z" fill="black"/>
<path d="M152.359 7.66852L154.55 9.26858C154.902 9.53159 155.089 9.93709 155.089 10.3316L155.177 15.888L160 13.7948V8.95076C160 7.8877 159.109 7 158.04 7H149.111C147.68 7 147.107 8.15073 147.107 9.26858V11.8878C147.107 13.0824 147.107 13.9263 147.151 14.5948C147.151 17.3894 148.087 20.1074 149.826 22.332L149.871 22.3759L152.822 26.5076C154.693 28.8639 154.925 29.62 154.925 32.0201V39.3519C154.925 39.3956 154.837 39.4396 154.792 39.3956L152.689 38.2011C152.293 37.9381 152.017 37.5326 152.017 37.0504L151.974 31.1871L147.151 33.2366V38.1244C147.151 39.1875 148.043 40.0751 149.111 40.0751H157.997C158.755 40.0751 159.339 39.6806 159.691 39.1437C159.912 38.6504 159.912 39.0998 159.955 29.2364C159.779 27.0117 159.197 25.4993 157.501 23.2307L154.241 19.099C152.767 17.236 152.271 15.7674 152.238 14.2989V7.75619C152.226 7.66852 152.315 7.62468 152.359 7.66852Z" fill="black"/>
<path d="M108.34 7.07666V38.1792C108.34 39.2203 107.492 40.0751 106.435 40.0751H103.099L103.088 40.0861H88.0815C87.0465 40.0861 86.1987 39.2532 86.1987 38.2121V7.07666H91.4506V36.7545C91.4506 37.0175 91.5607 37.2585 91.7479 37.434L94.5995 40.0532V7.07666H99.8513V36.6887C99.8513 36.9517 99.9615 37.1928 100.149 37.3791L103.099 40.0751V7.07666H108.34Z" fill="black"/>
</g>
<defs>
<clipPath id="clip0_7545_2662">
<rect width="160" height="33.1034" fill="white" transform="translate(0 7)"/>
</clipPath>
</defs>
</svg>
