<svg width="160" height="48" viewBox="0 0 160 48" fill="none" xmlns="http://www.w3.org/2000/svg">
<path d="M80.8324 36.6015C79.1934 37.558 77.3322 38.0646 75.4361 38.0703C70.5278 38.0703 67.5713 35.3919 67.5713 30.1791V22.6911H63.9833V17.6799H67.5713V11.8335H73.8574V17.6799H79.6843V22.6911H73.8574V29.5455C73.8574 31.5903 74.8333 32.4255 76.4982 32.4255C77.5009 32.3854 78.4819 32.1196 79.3685 31.6479L80.8324 36.6015Z" fill="black"/>
<path d="M89.5583 11.8336C89.5583 13.8496 88.037 15.3472 85.913 15.3472C83.7889 15.3472 82.2963 13.8496 82.2963 11.8336C82.2963 10.8674 82.6788 9.94073 83.3598 9.2575C84.0407 8.57427 84.9643 8.19043 85.9273 8.19043C86.8903 8.19043 87.8139 8.57427 88.4948 9.2575C89.1758 9.94073 89.5583 10.8674 89.5583 11.8336V11.8336ZM82.7556 37.4656V17.68H89.0417V37.4656H82.7556V37.4656Z" fill="black"/>
<path d="M113.095 37.4658H105.862L102.102 31.7346L98.2843 37.4658H91.1083L97.5954 27.8754L91.1083 17.6226H98.2843L102.102 23.7858L105.862 17.6226H113.095L106.58 27.8754L113.095 37.4658Z" fill="black"/>
<path d="M132.298 29.1712H117.831C118.348 31.5328 119.956 33.0016 122.08 33.0016C123.543 33.0016 125.237 32.656 126.299 30.7264L131.868 31.8784C130.174 36.0544 126.615 38.0704 122.08 38.0704C116.396 38.0704 111.66 33.8368 111.66 27.5872C111.66 21.3376 116.368 17.104 122.108 17.104C127.677 17.104 132.155 21.136 132.298 27.5872V29.1712V29.1712ZM117.946 25.312H126.069C125.467 23.1808 123.917 22.2016 122.108 22.2016C121.173 22.201 120.263 22.5034 119.513 23.0639C118.763 23.6243 118.213 24.4129 117.946 25.312Z" fill="black"/>
<path d="M134.106 37.4656V9.06885H140.393V37.4656H134.106V37.4656Z" fill="black"/>
<path d="M51.9852 27.501L41.4222 37.7826L29.3093 25.5714L20.7556 16.989L31.0315 6.36182L41.0778 14.3682L42.1398 15.6642L51.9852 27.501Z" fill="#A6A6A6"/>
<path d="M41.4509 33.1168C41.7576 33.4194 42.0012 33.7803 42.1675 34.1783C42.3338 34.5764 42.4194 35.0036 42.4194 35.4352C42.4194 35.8668 42.3338 36.2941 42.1675 36.6921C42.0012 37.0902 41.7576 37.451 41.4509 37.7536V37.7536C41.1493 38.0614 40.7897 38.3058 40.393 38.4726C39.9963 38.6394 39.5704 38.7254 39.1403 38.7254C38.7101 38.7254 38.2843 38.6394 37.8876 38.4726C37.4909 38.3058 37.1312 38.0614 36.8296 37.7536V37.7536L31.1176 32.0224L25.4055 37.7536C25.1036 38.0748 24.7405 38.3319 24.3377 38.5098C23.9349 38.6876 23.5007 38.7826 23.0607 38.789C22.6207 38.7954 22.1839 38.7132 21.7761 38.5472C21.3683 38.3812 20.9979 38.1349 20.6868 37.8227C20.3756 37.5104 20.13 37.1388 19.9646 36.7296C19.7992 36.3205 19.7172 35.8822 19.7236 35.4407C19.7301 34.9993 19.8247 34.5636 20.0019 34.1595C20.1792 33.7553 20.4354 33.391 20.7555 33.088L26.4676 27.3568L20.7555 21.6256C20.1683 21.001 19.8468 20.1713 19.8593 19.3127C19.8717 18.4542 20.2172 17.6342 20.8224 17.0271C21.4275 16.4199 22.2447 16.0732 23.1004 16.0607C23.9561 16.0482 24.783 16.3708 25.4055 16.96L31.1176 22.6912L36.8296 16.96C37.1316 16.6389 37.4947 16.3817 37.8975 16.2039C38.3002 16.0261 38.7345 15.9311 39.1745 15.9247C39.6145 15.9182 40.0513 16.0004 40.4591 16.1664C40.8668 16.3324 41.2373 16.5788 41.5484 16.891C41.8596 17.2032 42.1051 17.5749 42.2706 17.984C42.436 18.3932 42.5179 18.8314 42.5115 19.2729C42.5051 19.7144 42.4105 20.1501 42.2332 20.5542C42.056 20.9583 41.7997 21.3227 41.4796 21.6256L35.7676 27.3568L41.4509 33.1168Z" fill="#797979"/>
<path d="M46.4454 16.9599L51.9852 11.3727C52.6437 10.712 53.0136 9.81587 53.0136 8.88149C53.0136 7.94711 52.6437 7.05099 51.9852 6.39029C51.3267 5.72958 50.4336 5.3584 49.5023 5.3584C48.5711 5.3584 47.678 5.72958 47.0195 6.39029L41.4796 11.9775L35.9111 6.39029C35.2526 5.72958 34.3595 5.3584 33.4282 5.3584C32.497 5.3584 31.6039 5.72958 30.9454 6.39029C30.2869 7.05099 29.9169 7.94711 29.9169 8.88149C29.9169 9.81587 30.2869 10.712 30.9454 11.3727L36.5139 16.9599L30.9454 22.5471C30.618 22.8705 30.3581 23.2561 30.1806 23.6813C30.0032 24.1065 29.9118 24.5629 29.9118 25.0239C29.9118 25.4849 30.0032 25.9412 30.1806 26.3665C30.3581 26.7917 30.618 27.1772 30.9454 27.5007C31.2706 27.8293 31.6574 28.0901 32.0835 28.2681C32.5097 28.4461 32.9667 28.5377 33.4282 28.5377C33.8898 28.5377 34.3468 28.4461 34.773 28.2681C35.1991 28.0901 35.5859 27.8293 35.9111 27.5007L41.4796 21.9135L47.0195 27.5007C47.3418 27.8291 47.7261 28.09 48.1499 28.268C48.5737 28.4461 49.0285 28.5378 49.488 28.5378C49.9474 28.5378 50.4023 28.4461 50.8261 28.268C51.2499 28.09 51.6341 27.8291 51.9565 27.5007C52.6048 26.8346 52.9678 25.9405 52.9678 25.0095C52.9678 24.0785 52.6048 23.1844 51.9565 22.5183L46.4454 16.9599Z" fill="black"/>
</svg>
